Normalized EMG Linear Envelopes
nRows=38
nColumns=17

endheader
time	        VM	        VL	        RF	       GRA	        TA	   ADDLONG	   SEMIMEM	      BFLH	        GM	        GL	       TFL	   GLUTMAX	   GLUTMED	      PIRI	    OBTINT	        QF	
1.7835	  0.107782	  0.123210	  0.242932	  0.749851	  0.119550	  0.413522	  0.254291	  0.112413	  0.302646	  0.284286	  0.330433	  0.029902	  0.142863	  0.378268	  0.661026	  0.223769	
1.784	  0.106110	  0.121634	  0.242125	  0.751718	  0.121059	  0.415671	  0.254978	  0.113288	  0.305715	  0.285994	  0.331993	  0.029586	  0.141857	  0.375607	  0.654987	  0.222206	
1.7845	  0.104466	  0.120103	  0.241373	  0.753456	  0.122601	  0.417811	  0.255612	  0.114158	  0.308748	  0.287676	  0.333537	  0.029276	  0.140859	  0.372909	  0.648871	  0.220638	
1.785	  0.102849	  0.118618	  0.240678	  0.755067	  0.124178	  0.419940	  0.256192	  0.115025	  0.311742	  0.289334	  0.335064	  0.028972	  0.139869	  0.370178	  0.642681	  0.219064	
1.7855	  0.101260	  0.117179	  0.240040	  0.756549	  0.125788	  0.422058	  0.256719	  0.115888	  0.314696	  0.290968	  0.336574	  0.028673	  0.138888	  0.367412	  0.636423	  0.217488	
1.786	  0.099700	  0.115785	  0.239460	  0.757905	  0.127433	  0.424164	  0.257191	  0.116746	  0.317609	  0.292579	  0.338067	  0.028379	  0.137915	  0.364616	  0.630100	  0.215908	
1.7865	  0.098168	  0.114436	  0.238940	  0.759133	  0.129113	  0.426258	  0.257610	  0.117598	  0.320478	  0.294166	  0.339543	  0.028091	  0.136951	  0.361789	  0.623717	  0.214326	
1.787	  0.096664	  0.113133	  0.238481	  0.760236	  0.130828	  0.428339	  0.257973	  0.118446	  0.323303	  0.295730	  0.341001	  0.027808	  0.135994	  0.358933	  0.617278	  0.212742	
1.7875	  0.095189	  0.111875	  0.238083	  0.761214	  0.132578	  0.430405	  0.258283	  0.119287	  0.326081	  0.297272	  0.342444	  0.027531	  0.135047	  0.356051	  0.610786	  0.211158	
1.788	  0.093742	  0.110662	  0.237747	  0.762069	  0.134364	  0.432458	  0.258538	  0.120122	  0.328812	  0.298792	  0.343870	  0.027260	  0.134107	  0.353142	  0.604246	  0.209573	
1.7885	  0.092324	  0.109495	  0.237475	  0.762801	  0.136185	  0.434495	  0.258739	  0.120951	  0.331494	  0.300290	  0.345280	  0.026994	  0.133177	  0.350210	  0.597662	  0.207989	
1.789	  0.090934	  0.108373	  0.237266	  0.763413	  0.138043	  0.436517	  0.258887	  0.121772	  0.334124	  0.301767	  0.346674	  0.026733	  0.132255	  0.347254	  0.591036	  0.206406	
1.7895	  0.089573	  0.107295	  0.237122	  0.763907	  0.139936	  0.438522	  0.258981	  0.122586	  0.336703	  0.303223	  0.348053	  0.026478	  0.131342	  0.344277	  0.584372	  0.204825	
1.79	  0.088241	  0.106263	  0.237044	  0.764284	  0.141865	  0.440512	  0.259023	  0.123392	  0.339228	  0.304659	  0.349418	  0.026228	  0.130438	  0.341279	  0.577674	  0.203246	
1.7905	  0.086938	  0.105275	  0.237031	  0.764548	  0.143830	  0.442484	  0.259014	  0.124190	  0.341698	  0.306074	  0.350767	  0.025984	  0.129544	  0.338262	  0.570945	  0.201669	
1.791	  0.085664	  0.104331	  0.237085	  0.764699	  0.145831	  0.444439	  0.258954	  0.124979	  0.344112	  0.307470	  0.352102	  0.025745	  0.128659	  0.335227	  0.564188	  0.200095	
1.7915	  0.084418	  0.103431	  0.237205	  0.764740	  0.147868	  0.446375	  0.258844	  0.125759	  0.346469	  0.308846	  0.353423	  0.025511	  0.127783	  0.332175	  0.557407	  0.198525	
1.792	  0.083201	  0.102575	  0.237393	  0.764672	  0.149941	  0.448294	  0.258685	  0.126528	  0.348769	  0.310203	  0.354731	  0.025283	  0.126917	  0.329108	  0.550605	  0.196958	
1.7925	  0.082013	  0.101763	  0.237649	  0.764499	  0.152050	  0.450193	  0.258478	  0.127288	  0.351010	  0.311541	  0.356025	  0.025060	  0.126061	  0.326026	  0.543786	  0.195397	
1.793	  0.080853	  0.100993	  0.237973	  0.764221	  0.154196	  0.452072	  0.258224	  0.128037	  0.353193	  0.312860	  0.357306	  0.024842	  0.125216	  0.322931	  0.536954	  0.193840	
1.7935	  0.079722	  0.100267	  0.238364	  0.763842	  0.156377	  0.453931	  0.257923	  0.128775	  0.355316	  0.314162	  0.358574	  0.024629	  0.124381	  0.319824	  0.530111	  0.192290	
1.794	  0.078619	  0.099583	  0.238824	  0.763365	  0.158593	  0.455769	  0.257576	  0.129501	  0.357380	  0.315445	  0.359830	  0.024421	  0.123556	  0.316706	  0.523262	  0.190747	
1.7945	  0.077545	  0.098940	  0.239353	  0.762792	  0.160845	  0.457584	  0.257185	  0.130216	  0.359383	  0.316711	  0.361074	  0.024217	  0.122743	  0.313578	  0.516409	  0.189212	
1.795	  0.076499	  0.098340	  0.239950	  0.762128	  0.163132	  0.459376	  0.256750	  0.130919	  0.361326	  0.317960	  0.362306	  0.024019	  0.121940	  0.310441	  0.509557	  0.187686	
1.7955	  0.075481	  0.097780	  0.240616	  0.761376	  0.165455	  0.461145	  0.256274	  0.131608	  0.363207	  0.319191	  0.363525	  0.023826	  0.121148	  0.307296	  0.502709	  0.186170	
1.796	  0.074491	  0.097261	  0.241349	  0.760541	  0.167812	  0.462889	  0.255756	  0.132284	  0.365025	  0.320404	  0.364733	  0.023637	  0.120367	  0.304145	  0.495867	  0.184664	
1.7965	  0.073529	  0.096782	  0.242152	  0.759625	  0.170203	  0.464607	  0.255200	  0.132947	  0.366781	  0.321601	  0.365930	  0.023453	  0.119597	  0.300988	  0.489036	  0.183170	
1.797	  0.072595	  0.096342	  0.243022	  0.758632	  0.172628	  0.466301	  0.254605	  0.133595	  0.368472	  0.322779	  0.367114	  0.023273	  0.118838	  0.297826	  0.482219	  0.181687	
1.7975	  0.071688	  0.095942	  0.243961	  0.757567	  0.175086	  0.467968	  0.253974	  0.134227	  0.370099	  0.323940	  0.368287	  0.023098	  0.118090	  0.294661	  0.475418	  0.180217	
1.798	  0.070809	  0.095580	  0.244967	  0.756431	  0.177577	  0.469608	  0.253307	  0.134844	  0.371660	  0.325083	  0.369448	  0.022927	  0.117353	  0.291493	  0.468637	  0.178761	
1.7985	  0.069957	  0.095255	  0.246041	  0.755228	  0.180100	  0.471222	  0.252605	  0.135445	  0.373154	  0.326208	  0.370598	  0.022761	  0.116627	  0.288324	  0.461879	  0.177319	
1.799	  0.069131	  0.094968	  0.247182	  0.753961	  0.182656	  0.472808	  0.251871	  0.136029	  0.374581	  0.327313	  0.371737	  0.022598	  0.115911	  0.285155	  0.455146	  0.175891	
1.7995	  0.068333	  0.094717	  0.248389	  0.752632	  0.185242	  0.474366	  0.251105	  0.136594	  0.375939	  0.328400	  0.372865	  0.022440	  0.115207	  0.281987	  0.448441	  0.174479	
1.8	  0.067560	  0.094502	  0.249663	  0.751243	  0.187859	  0.475897	  0.250307	  0.137142	  0.377227	  0.329467	  0.373983	  0.022286	  0.114512	  0.278821	  0.441767	  0.173083	
1.8005	  0.066814	  0.094322	  0.251003	  0.749797	  0.190505	  0.477399	  0.249480	  0.137671	  0.378445	  0.330514	  0.375091	  0.022135	  0.113829	  0.275659	  0.435125	  0.171704	
1.801	  0.066094	  0.094175	  0.252408	  0.748295	  0.193180	  0.478871	  0.248623	  0.138181	  0.379590	  0.331541	  0.376188	  0.021989	  0.113156	  0.272502	  0.428519	  0.170341	
1.8015	  0.065399	  0.094063	  0.253878	  0.746741	  0.195883	  0.480314	  0.247739	  0.138672	  0.380662	  0.332546	  0.377277	  0.021846	  0.112494	  0.269351	  0.421950	  0.168996	
1.802	  0.064729	  0.093983	  0.255412	  0.745136	  0.198613	  0.481726	  0.246827	  0.139145	  0.381658	  0.333530	  0.378357	  0.021706	  0.111843	  0.266207	  0.415420	  0.167668	
